<svg width="330" height="330" xmlns="http://www.w3.org/2000/svg" xmlns:xlink="http://www.w3.org/1999/xlink" xml:space="preserve" overflow="hidden"><defs><clipPath id="clip0"><rect x="3186" y="288" width="330" height="330"/></clipPath></defs><g clip-path="url(#clip0)" transform="translate(-3186 -288)"><path d="M3186 288 3218 288 3218 618 3186 618Z" fill="#276BE9" fill-rule="evenodd"/><path d="M3494.35 288 3240 288 3240 618 3494.35 618C3506.26 618 3516 609.973 3516 600.162L3516 305.838C3516 296.027 3506.26 288 3494.35 288ZM3332.54 413.311C3332.54 394.581 3350.94 379.419 3373.67 379.419 3396.4 379.419 3414.8 394.581 3414.8 413.311 3414.8 432.041 3396.4 447.203 3373.67 447.203 3350.94 447.203 3332.54 432.487 3332.54 413.311ZM3456.47 524.352 3290.87 524.352 3290.87 490.46C3290.87 485.108 3294.12 480.203 3298.99 476.635 3311.44 469.5 3324.96 463.703 3339.58 460.581 3350.94 457.905 3362.31 456.568 3373.67 456.122 3385.04 456.122 3396.94 457.46 3407.76 460.581 3422.38 463.703 3435.91 469.054 3448.35 476.635 3453.22 479.757 3456.47 485.108 3456.47 490.46L3456.47 524.352Z" fill="#276BE9" fill-rule="evenodd"/></g></svg>