<svg width="330" height="330" xmlns="http://www.w3.org/2000/svg" xmlns:xlink="http://www.w3.org/1999/xlink" xml:space="preserve" overflow="hidden"><defs><clipPath id="clip0"><rect x="2960" y="430" width="330" height="330"/></clipPath></defs><g clip-path="url(#clip0)" transform="translate(-2960 -430)"><path d="M3066 487C3066 518.481 3050.11 544 3030.5 544 3010.89 544 2995 518.481 2995 487 2995 455.52 3010.89 430 3030.5 430 3050.11 430 3066 455.52 3066 487Z" fill="#276BE9" fill-rule="evenodd"/><path d="M3255 487C3255 518.481 3239.11 544 3219.5 544 3199.89 544 3184 518.481 3184 487 3184 455.52 3199.89 430 3219.5 430 3239.11 430 3255 455.52 3255 487Z" fill="#276BE9" fill-rule="evenodd"/><path d="M3196 760 3196 703.5C3196 694.711 3193.63 685.922 3188.9 680.9 3179.43 668.344 3166.81 659.556 3154.19 654.533 3145.51 650.767 3135.26 647 3125 647 3115.53 647 3105.28 649.511 3095.81 654.533 3083.19 659.556 3071.36 669.6 3061.1 680.9 3056.37 687.178 3054 694.711 3054 703.5L3054 760 3196 760Z" fill="#276BE9" fill-rule="evenodd"/><path d="M3160 575C3160 606.48 3144.33 632 3125 632 3105.67 632 3090 606.48 3090 575 3090 543.52 3105.67 518 3125 518 3144.33 518 3160 543.52 3160 575Z" fill="#276BE9" fill-rule="evenodd"/><path d="M3282.93 592.9C3273.51 580.344 3260.95 571.556 3248.38 566.533 3239.74 562.767 3229.53 559 3219.33 559 3209.9 559 3199.69 561.511 3190.27 566.533 3185.56 569.044 3180.85 571.556 3176.14 575.322L3176.14 576.578C3176.14 597.922 3170.64 618.011 3162 631.822 3176.92 639.355 3188.7 649.4 3198.12 660.7 3200.48 664.467 3202.83 666.978 3204.41 672L3290 672 3290 615.5C3290 606.711 3287.64 597.922 3282.93 592.9Z" fill="#276BE9" fill-rule="evenodd"/><path d="M3051.88 660.7 3051.88 660.7C3062.87 648.144 3075.44 638.1 3088 631.822 3079.36 616.756 3073.86 597.922 3073.86 576.578 3073.86 575.322 3073.86 575.322 3073.86 574.067 3069.15 571.556 3064.44 567.789 3059.73 566.533 3051.09 562.767 3040.88 559 3030.67 559 3021.25 559 3011.04 561.511 3001.62 566.533 2989.06 572.811 2977.28 581.6 2967.07 592.9 2962.36 597.922 2960 606.711 2960 615.5L2960 672 3044.81 672C3047.17 666.978 3048.74 664.467 3051.88 660.7Z" fill="#276BE9" fill-rule="evenodd"/></g></svg>