<svg width="330" height="330" xmlns="http://www.w3.org/2000/svg" xmlns:xlink="http://www.w3.org/1999/xlink" xml:space="preserve" overflow="hidden"><defs><clipPath id="clip0"><rect x="3207" y="475" width="330" height="330"/></clipPath></defs><g clip-path="url(#clip0)" transform="translate(-3207 -475)"><path d="M3364 724.5C3364 735.27 3356.16 744 3346.5 744 3336.83 744 3329 735.27 3329 724.5 3329 713.731 3336.83 705 3346.5 705 3356.16 705 3364 713.731 3364 724.5Z" fill="#276BE9" fill-rule="evenodd"/><path d="M3381 788 3381 768.479C3380.94 765.437 3379.66 762.582 3377.5 760.696 3372.43 756.372 3366.62 753.214 3360.43 751.408 3355.75 749.821 3350.89 749.01 3346 749 3341.11 749.084 3336.26 749.893 3331.57 751.408 3325.45 753.413 3319.67 756.554 3314.5 760.696 3312.34 762.582 3311.06 765.437 3311 768.479L3311 788Z" fill="#276BE9" fill-rule="evenodd"/><path d="M3441 724.5C3441 735.27 3433.16 744 3423.5 744 3413.83 744 3406 735.27 3406 724.5 3406 713.731 3413.83 705 3423.5 705 3433.16 705 3441 713.731 3441 724.5Z" fill="#276BE9" fill-rule="evenodd"/><path d="M3459 788 3459 768.479C3458.94 765.437 3457.66 762.582 3455.5 760.696 3450.43 756.372 3444.62 753.214 3438.43 751.408 3433.75 749.821 3428.89 749.01 3424 749 3419.11 749.084 3414.26 749.893 3409.57 751.408 3403.45 753.413 3397.67 756.554 3392.5 760.696 3390.34 762.582 3389.06 765.437 3389 768.479L3389 788Z" fill="#276BE9" fill-rule="evenodd"/><path d="M3519 724.5C3519 735.27 3511.17 744 3501.5 744 3491.84 744 3484 735.27 3484 724.5 3484 713.731 3491.84 705 3501.5 705 3511.17 705 3519 713.731 3519 724.5Z" fill="#276BE9" fill-rule="evenodd"/><path d="M3537 788 3537 768.479C3536.94 765.437 3535.64 762.582 3533.45 760.696 3528.3 756.372 3522.42 753.214 3516.13 751.408 3511.39 749.821 3506.46 749.01 3501.5 749 3496.54 749.084 3491.62 749.893 3486.87 751.408 3480.65 753.413 3474.8 756.554 3469.55 760.696 3467.36 762.582 3466.06 765.437 3466 768.479L3466 788Z" fill="#276BE9" fill-rule="evenodd"/><path d="M3293 544.5C3293 558.583 3282.7 570 3270 570 3257.3 570 3247 558.583 3247 544.5 3247 530.417 3257.3 519 3270 519 3282.7 519 3293 530.417 3293 544.5Z" fill="#276BE9" fill-rule="evenodd"/><path d="M3406.31 534.86C3404.03 532.38 3400.37 532.38 3398.09 534.86L3347.95 590.146C3343.94 588.899 3339.63 590.106 3336.65 593.313 3335.84 594.211 3321.36 620.314 3321.36 620.314L3317.02 599.902C3316.44 597.271 3315.25 594.851 3313.56 592.885 3306.41 586.509 3298.18 581.767 3289.35 578.935 3283.11 577.462 3276.75 576.617 3270.37 576.41 3263.93 576.52 3257.54 577.585 3251.36 579.577 3242.45 582.153 3234.18 586.922 3227.18 593.527 3225.48 595.481 3224.28 597.905 3223.73 600.544 3223.73 600.544 3207 677.996 3207 679.28 3207 686.37 3212.21 692.117 3218.64 692.117 3223.79 691.971 3228.25 688.106 3229.59 682.618L3241.69 627.374 3241.69 805 3264.63 805 3264.63 690.705 3276.27 690.705 3276.27 805 3299.17 805 3299.17 626.561 3303.44 646.673C3303.73 648.063 3304.57 649.238 3305.73 649.883 3310.19 653.659 3315.62 655.772 3321.25 655.916 3324.91 656.481 3328.54 654.664 3330.56 651.252L3354.23 608.461C3355.75 605.83 3356.32 602.671 3355.83 599.603L3406.27 543.975C3408.56 541.466 3408.58 537.392 3406.31 534.86Z" fill="#276BE9" fill-rule="evenodd"/><path d="M3485.49 475 3295.51 475C3286.94 475 3280 482.688 3280 492.171L3280 507.624C3285.93 509.411 3291.3 512.977 3295.51 517.927L3295.51 492.171 3485.49 492.171 3485.49 633.829 3353.16 633.829 3343.7 651 3485.49 651C3494.06 651 3501 643.312 3501 633.829L3501 492.171C3501 482.688 3494.06 475 3485.49 475Z" fill="#276BE9" fill-rule="evenodd"/></g></svg>