<svg width="330" height="330" xmlns="http://www.w3.org/2000/svg" xmlns:xlink="http://www.w3.org/1999/xlink" xml:space="preserve" overflow="hidden"><defs><clipPath id="clip0"><rect x="881" y="976" width="330" height="330"/></clipPath></defs><g clip-path="url(#clip0)" transform="translate(-881 -976)"><path d="M1075 1011.5C1075 1031.28 1062.16 1047 1046 1047 1029.84 1047 1017 1031.28 1017 1011.5 1017 991.722 1029.84 976 1046 976 1062.16 976 1075 992.229 1075 1011.5" fill="#276BE9" fill-rule="evenodd"/><path d="M1190 1031.5C1190 1051.28 1177.16 1067 1161 1067 1144.84 1067 1132 1051.28 1132 1031.5 1132 1011.72 1144.84 996 1161 996 1177.16 996 1190 1011.72 1190 1031.5" fill="#276BE9" fill-rule="evenodd"/><path d="M959 1031.5C959 1051.28 946.157 1067 930 1067 913.843 1067 901 1051.28 901 1031.5 901 1011.72 913.843 996 930 996 946.157 996 959 1011.72 959 1031.5" fill="#276BE9" fill-rule="evenodd"/><path d="M883 1306C883 1207.01 955.589 1127 1045.5 1127 1135 1127 1208 1207.01 1208 1306L883 1306Z" fill="#276BE9" fill-rule="evenodd"/><path d="M920.6 1146.01C937.925 1131.86 958.138 1120.75 980 1113.68L980 1108.12C980 1102.56 977.938 1097.01 975.05 1093.47 973.813 1091.96 970.925 1089.94 967.213 1087.92 944.525 1074.78 917.713 1074.78 894.613 1087.41 890.488 1089.43 887.188 1091.96 885.538 1093.47 883.063 1097.01 881 1102.56 881 1108.12L881 1194C890.488 1176.32 903.688 1159.65 920.6 1146.01" fill="#276BE9" fill-rule="evenodd"/><path d="M1095 1109 1095 1087.81C1095 1082.13 1092.95 1076.44 1090.07 1072.83 1088.84 1071.28 1085.96 1069.21 1082.27 1067.14 1059.67 1053.71 1032.97 1053.71 1009.97 1066.63 1005.86 1068.69 1002.57 1071.28 1000.93 1072.83 997.643 1076.44 996 1082.13 996 1087.81L996 1109C1012.02 1104.87 1028.45 1102.8 1045.29 1102.8 1062.14 1102.8 1078.98 1105.38 1095 1109" fill="#276BE9" fill-rule="evenodd"/><path d="M1211 1194 1211 1108.12C1211 1102.56 1208.93 1097.01 1206.02 1093.47 1204.78 1091.96 1201.87 1089.94 1198.14 1087.92 1175.32 1074.78 1148.34 1074.78 1125.11 1087.41 1120.96 1089.43 1117.64 1091.96 1115.98 1093.47 1112.66 1097.01 1111 1102.56 1111 1108.12L1111 1113.68C1132.99 1120.75 1153.32 1131.86 1170.75 1146.01 1188.18 1159.65 1201.46 1176.32 1211 1194" fill="#276BE9" fill-rule="evenodd"/></g></svg>