<svg width="330" height="330" xmlns="http://www.w3.org/2000/svg" xmlns:xlink="http://www.w3.org/1999/xlink" xml:space="preserve" overflow="hidden"><defs><clipPath id="clip0"><rect x="3340" y="227" width="330" height="330"/></clipPath></defs><g clip-path="url(#clip0)" transform="translate(-3340 -227)"><path d="M3465 378C3465 398.434 3446.2 415 3423 415 3399.8 415 3381 398.434 3381 378 3381 357.565 3399.8 341 3423 341 3446.2 341 3465 357.565 3465 378Z" fill="#276BE9" fill-rule="evenodd"/><path d="M3618.99 557 3618.99 520C3619.17 514.142 3616.02 508.593 3610.59 505.2 3598.51 496.865 3584.49 490.97 3569.53 487.933 3558.31 484.963 3546.7 483.305 3535 483 3523.26 483.032 3511.61 484.697 3500.46 487.933 3485.72 491.489 3471.81 497.337 3459.4 505.2 3454.14 508.71 3451.03 514.183 3451 520L3451 557Z" fill="#276BE9" fill-rule="evenodd"/><path d="M3577 436C3577 456.435 3558.2 473 3535 473 3511.8 473 3493 456.435 3493 436 3493 415.566 3511.8 399 3535 399 3558.2 399 3577 415.566 3577 436Z" fill="#276BE9" fill-rule="evenodd"/><path d="M3448.39 491.6 3448.39 491.6C3461.39 483.362 3475.77 476.981 3491 472.689 3480.47 462.947 3474.51 450.012 3474.33 436.511L3474.33 434.867C3468.91 432.854 3463.34 431.205 3457.65 429.933 3446.52 426.963 3435 425.304 3423.38 425 3411.73 425.032 3400.16 426.697 3389.1 429.933 3374.61 433.837 3360.87 439.658 3348.34 447.2 3342.96 450.593 3339.84 456.142 3340.01 462L3340.01 499 3440.05 499C3442.35 496.14 3445.17 493.638 3448.39 491.6Z" fill="#276BE9" fill-rule="evenodd"/><path d="M3660.28 227 3484.67 227C3479.3 227.045 3474.98 230.946 3475 235.728L3475 342.238C3474.9 347.034 3479.19 350.997 3484.58 351.088 3484.61 351.089 3484.64 351.089 3484.67 351.09L3512.57 351.09 3512.57 386 3551.11 351.09 3660.28 351.09C3665.66 351.044 3670 347.15 3670 342.362L3670 235.728C3670 230.939 3665.66 227.045 3660.28 227ZM3571.66 335.578C3565.96 335.578 3561.34 331.466 3561.34 326.395 3561.34 321.323 3565.97 317.213 3571.67 317.213 3577.31 317.213 3581.91 321.249 3581.99 326.272 3582.09 331.319 3577.57 335.486 3571.9 335.577 3571.82 335.578 3571.74 335.579 3571.66 335.578ZM3578.31 297.731 3578.31 310.76 3565.06 310.76 3565.06 286.397 3571.66 286.397C3583.19 286.397 3590.63 280.4 3590.63 271.176 3590.82 262.039 3582.64 254.502 3572.37 254.34 3572.13 254.336 3571.9 254.337 3571.66 254.341 3562.1 253.551 3553.63 259.806 3552.74 268.313 3552.64 269.265 3552.64 270.224 3552.74 271.176L3552.74 272.21 3539.49 272.21 3539.49 271.176C3538.49 256.239 3551.28 243.407 3568.07 242.513 3569.27 242.45 3570.47 242.449 3571.66 242.511 3589.25 242.327 3603.68 254.863 3603.88 270.51 3603.89 270.732 3603.89 270.954 3603.88 271.176 3604.34 284.57 3593.26 296.073 3578.31 297.731Z" fill="#276BE9" fill-rule="evenodd"/></g></svg>