<svg width="334" height="334" xmlns="http://www.w3.org/2000/svg" xmlns:xlink="http://www.w3.org/1999/xlink" xml:space="preserve" overflow="hidden"><defs><clipPath id="clip0"><rect x="2434" y="393" width="334" height="334"/></clipPath></defs><g clip-path="url(#clip0)" transform="translate(-2434 -393)"><path d="M2768 440.5C2768 466.734 2757.03 488 2743.5 488 2729.97 488 2719 466.734 2719 440.5 2719 414.266 2729.97 393 2743.5 393 2757.03 393 2768 414.266 2768 440.5Z" fill="#276BE9" fill-rule="evenodd"/><path d="M2692.41 447.573 2692.41 447.573C2648.45 423.779 2607.57 461.851 2586.98 482.076L2586.98 482.076C2577.76 490.999 2571.3 508.846 2571.3 530.261L2571.3 630.2 2519.97 677.195C2513.82 682.549 2511.36 696.826 2514.13 708.723 2516.28 717.051 2520.58 722.405 2525.19 722.405 2527.04 722.405 2528.88 721.81 2530.42 720.026L2588.82 666.487C2593.12 662.323 2595.89 653.995 2595.89 645.072L2595.89 558.22 2629.09 604.62 2606.65 687.308C2603.57 699.205 2605.73 713.482 2611.87 719.431 2613.72 721.216 2615.56 722.405 2617.71 722.405 2622.02 722.405 2626.32 717.646 2628.47 709.913L2656.14 608.784C2658.9 598.077 2657.37 584.989 2652.45 578.446L2627.86 544.538 2688.41 544.538 2688.41 699.205C2688.41 712.292 2693.94 723 2700.71 723 2707.47 723 2713 712.292 2713 699.205L2713 493.974C2712.69 470.774 2703.78 451.143 2692.41 447.573Z" fill="#276BE9" fill-rule="evenodd"/><path d="M2438.5 723.5 2455.85 637.5 2513.5 723.5Z" stroke="#276BE9" stroke-width="6.875" stroke-miterlimit="8" fill="#276BE9" fill-rule="evenodd"/></g></svg>