<svg width="330" height="330" xmlns="http://www.w3.org/2000/svg" xmlns:xlink="http://www.w3.org/1999/xlink" xml:space="preserve" overflow="hidden"><defs><clipPath id="clip0"><rect x="3277" y="1192" width="330" height="330"/></clipPath></defs><g clip-path="url(#clip0)" transform="translate(-3277 -1192)"><path d="M3398.79 1383.07C3405.46 1371.21 3401.93 1355.54 3390.93 1348.34 3380.32 1341.56 3366.57 1344.53 3359.5 1355.54 3344.96 1340.29 3321.79 1340.29 3307.25 1355.96 3305.29 1358.08 3303.32 1361.05 3301.75 1363.59 3288.39 1364.43 3277.39 1376.29 3277 1390.7L3277 1399.17 3277 1522 3607 1522 3607 1399.17 3607 1390.7C3606.21 1371.21 3590.5 1355.96 3572.43 1356.81 3569.29 1356.81 3566.14 1357.66 3563.39 1358.5 3536.68 1335.63 3497.79 1340.29 3476.57 1369.09L3475 1372.06C3476.18 1373.33 3477.36 1374.18 3478.54 1375.45 3498.57 1397.05 3498.57 1431.78 3478.54 1453.38L3478.54 1453.38 3462.82 1470.33C3443.18 1491.93 3410.96 1492.35 3390.54 1471.17 3370.5 1449.99 3370.11 1415.26 3389.75 1393.24 3390.14 1392.81 3390.14 1392.81 3390.54 1392.39L3392.5 1390.27 3398.79 1383.07Z" fill="#276BE9" fill-rule="evenodd"/><path d="M3430.09 1317.57C3434.04 1322.63 3436.8 1328.53 3438.77 1334.85 3439.17 1337.38 3439.56 1340.33 3439.56 1342.86L3439.56 1376.58C3430.88 1377 3422.59 1380.8 3416.28 1387.54L3400.5 1404.4C3386.68 1419.16 3386.68 1443.18 3400.5 1457.94 3414.31 1472.69 3436.8 1472.69 3450.61 1457.94L3466.39 1441.07C3480.2 1426.32 3480.2 1402.29 3466.39 1387.54L3466.39 1387.54C3466 1387.12 3466 1387.12 3465.6 1386.7L3437.98 1416.2 3456.13 1374.47 3455.74 1342.44C3456.13 1334.85 3457.71 1327.68 3460.47 1320.94 3464.03 1310.82 3470.73 1302.39 3479.42 1296.91 3495.99 1297.33 3525.58 1294.38 3544.13 1274.57 3570.96 1245.91 3564.25 1192.8 3564.25 1192.8 3564.25 1192.8 3514.14 1185.63 3487.7 1214.29 3468.37 1234.95 3466.39 1267.83 3466.79 1285.11 3457.71 1292.28 3451 1301.55 3446.27 1312.09 3445.09 1310.4 3443.9 1308.72 3442.72 1307.03 3443.11 1292.7 3441.14 1265.72 3425.75 1248.86 3403.65 1225.25 3362.61 1231.16 3362.61 1231.16 3362.61 1231.16 3357.09 1274.99 3379.19 1298.6 3394.18 1314.2 3416.28 1317.15 3430.09 1317.57Z" fill="#276BE9" fill-rule="evenodd"/></g></svg>