<svg width="330" height="330" xmlns="http://www.w3.org/2000/svg" xmlns:xlink="http://www.w3.org/1999/xlink" xml:space="preserve" overflow="hidden"><defs><clipPath id="clip0"><rect x="3515" y="678" width="330" height="330"/></clipPath></defs><g clip-path="url(#clip0)" transform="translate(-3515 -678)"><path d="M3595.37 842.741C3576.22 848.555 3558.59 856.308 3542.47 865.999 3531.39 872.976 3524.33 883.442 3523.83 894.683L3515.27 952.052C3513.75 960.579 3518.79 969.107 3527.86 973.759 3536.93 978.41 3546.5 981.899 3556.57 985L3561.11 985 3561.11 969.883C3553.55 967.557 3546 964.456 3538.94 960.967 3535.92 959.417 3534.41 956.703 3534.91 953.99L3543.98 895.846 3543.98 895.071C3544.48 888.093 3548.51 881.891 3555.57 877.627 3569.17 868.712 3588.82 860.572 3616.02 852.819 3631.13 859.797 3654.31 864.06 3680 864.06 3705.69 864.06 3728.87 859.797 3743.98 852.819 3771.69 860.572 3790.83 868.712 3804.43 877.627 3811.48 881.891 3815.52 888.481 3816.02 895.071L3825.09 953.602C3825.59 956.316 3824.08 959.029 3821.06 960.579L3821.06 960.579C3814 964.068 3806.95 967.169 3798.89 969.495L3798.89 984.612 3803.42 984.612C3813.5 981.899 3823.07 978.023 3832.14 973.371L3832.14 973.371C3841.21 968.332 3846.25 960.192 3844.73 951.664L3836.17 894.683C3835.67 883.442 3828.61 872.976 3817.53 865.999 3801.41 856.308 3783.78 848.168 3764.63 842.741 3764.63 822.972 3765.64 768.704 3765.64 746.61 3765.64 740.408 3764.63 734.206 3762.62 728.004 3756.07 709.398 3739.45 693.893 3717.28 684.977 3715.26 684.202 3712.24 684.202 3710.73 685.365L3706.2 688.078 3701.16 682.651C3699.65 680.713 3697.13 679.55 3694.61 679.163 3689.57 678.388 3685.04 678 3680 678 3659.85 678 3639.7 683.814 3624.58 693.893 3605.44 707.072 3594.86 725.678 3595.37 745.447L3595.37 842.741ZM3620.55 779.558 3624.08 747.773 3735.42 747.773 3738.94 779.558C3732.9 804.754 3701.66 821.422 3668.41 816.77 3644.23 813.282 3625.09 798.552 3620.55 779.558ZM3640.71 844.292C3646.25 840.803 3649.77 834.989 3649.77 829.174L3649.77 828.399C3668.92 834.601 3691.08 834.601 3710.23 828.399L3710.23 829.174C3710.23 834.989 3713.75 840.415 3719.29 844.292 3706.7 847.393 3693.1 848.555 3680 848.555 3666.9 848.555 3653.3 847.393 3640.71 844.292Z" fill="#276BE9" fill-rule="evenodd"/><path d="M3788.67 895.775C3788.67 890.301 3783.13 886 3776.07 886L3776.07 886 3583.93 886C3576.87 886 3571.33 890.301 3571.33 895.775L3571.33 895.775 3571.33 993.141 3533 993.141 3533 998.224C3533 1003.7 3538.55 1008 3545.61 1008L3814.39 1008C3821.45 1008 3827 1003.7 3827 998.224L3827 993.141 3788.67 993.141 3788.67 895.775ZM3653.52 960.295 3646.46 965.769 3618.22 943.872 3646.46 921.974 3653.52 927.448 3632.34 943.872 3653.52 960.295ZM3672.69 968.506 3663.61 965.378 3687.31 921.192 3696.39 924.32 3672.69 968.506ZM3713.03 966.16 3705.97 960.686 3727.15 944.263 3705.97 927.84 3713.03 922.365 3741.27 944.263 3713.03 966.16Z" fill="#276BE9" fill-rule="evenodd"/></g></svg>